TITLE ""
FILE "1Q_j_2356-2369.mp3" MP3
  TRACK 01 AUDIO
    TITLE "1Q_j_2356-2369_01"
    INDEX 01 00:00:00
  TRACK 02 AUDIO
    TITLE "1Q_j_2356-2369_02"
    INDEX 01 00:01:29
  TRACK 03 AUDIO
    TITLE "1Q_j_2356-2369_03"
    INDEX 01 00:01:37
  TRACK 04 AUDIO
    TITLE "1Q_j_2356-2369_04"
    INDEX 01 00:06:44
  TRACK 05 AUDIO
    TITLE "1Q_j_2356-2369_05"
    INDEX 01 00:06:52
  TRACK 06 AUDIO
    TITLE "1Q_j_2356-2369_06"
    INDEX 01 00:12:41
  TRACK 07 AUDIO
    TITLE "1Q_j_2356-2369_07"
    INDEX 01 00:13:13
  TRACK 08 AUDIO
    TITLE "1Q_j_2356-2369_08"
    INDEX 01 00:14:30
  TRACK 09 AUDIO
    TITLE "1Q_j_2356-2369_09"
    INDEX 01 00:14:40
  TRACK 10 AUDIO
    TITLE "1Q_j_2356-2369_10"
    INDEX 01 00:16:43
  TRACK 11 AUDIO
    TITLE "1Q_j_2356-2369_11"
    INDEX 01 00:16:49
  TRACK 12 AUDIO
    TITLE "1Q_j_2356-2369_12"
    INDEX 01 00:21:03
  TRACK 13 AUDIO
    TITLE "1Q_j_2356-2369_13"
    INDEX 01 00:21:50
  TRACK 14 AUDIO
    TITLE "1Q_j_2356-2369_14"
    INDEX 01 00:23:15
  TRACK 15 AUDIO
    TITLE "1Q_j_2356-2369_15"
    INDEX 01 00:23:21
  TRACK 16 AUDIO
    TITLE "1Q_j_2356-2369_16"
    INDEX 01 00:28:01
  TRACK 17 AUDIO
    TITLE "1Q_j_2356-2369_17"
    INDEX 01 00:28:07
  TRACK 18 AUDIO
    TITLE "1Q_j_2356-2369_18"
    INDEX 01 00:33:10
  TRACK 19 AUDIO
    TITLE "1Q_j_2356-2369_19"
    INDEX 01 00:33:57
  TRACK 20 AUDIO
    TITLE "1Q_j_2356-2369_20"
    INDEX 01 00:35:09
  TRACK 21 AUDIO
    TITLE "1Q_j_2356-2369_21"
    INDEX 01 00:35:16
  TRACK 22 AUDIO
    TITLE "1Q_j_2356-2369_22"
    INDEX 01 00:38:09
  TRACK 23 AUDIO
    TITLE "1Q_j_2356-2369_23"
    INDEX 01 00:38:17
  TRACK 24 AUDIO
    TITLE "1Q_j_2356-2369_24"
    INDEX 01 00:44:31
  TRACK 25 AUDIO
    TITLE "1Q_j_2356-2369_25"
    INDEX 01 00:45:01
  TRACK 26 AUDIO
    TITLE "1Q_j_2356-2369_26"
    INDEX 01 00:46:30
  TRACK 27 AUDIO
    TITLE "1Q_j_2356-2369_27"
    INDEX 01 00:46:42
  TRACK 28 AUDIO
    TITLE "1Q_j_2356-2369_28"
    INDEX 01 00:49:48
  TRACK 29 AUDIO
    TITLE "1Q_j_2356-2369_29"
    INDEX 01 00:49:56
  TRACK 30 AUDIO
    TITLE "1Q_j_2356-2369_30"
    INDEX 01 00:54:22
  TRACK 31 AUDIO
    TITLE "1Q_j_2356-2369_31"
    INDEX 01 00:54:65
  TRACK 32 AUDIO
    TITLE "1Q_j_2356-2369_32"
    INDEX 01 00:56:17
  TRACK 33 AUDIO
    TITLE "1Q_j_2356-2369_33"
    INDEX 01 00:56:26
  TRACK 34 AUDIO
    TITLE "1Q_j_2356-2369_34"
    INDEX 01 00:58:14
  TRACK 35 AUDIO
    TITLE "1Q_j_2356-2369_35"
    INDEX 01 00:58:21
  TRACK 36 AUDIO
    TITLE "1Q_j_2356-2369_36"
    INDEX 01 01:05:18
  TRACK 37 AUDIO
    TITLE "1Q_j_2356-2369_37"
    INDEX 01 01:05:63
  TRACK 38 AUDIO
    TITLE "1Q_j_2356-2369_38"
    INDEX 01 01:07:01
  TRACK 39 AUDIO
    TITLE "1Q_j_2356-2369_39"
    INDEX 01 01:07:11
  TRACK 40 AUDIO
    TITLE "1Q_j_2356-2369_40"
    INDEX 01 01:10:48
  TRACK 41 AUDIO
    TITLE "1Q_j_2356-2369_41"
    INDEX 01 01:10:56
  TRACK 42 AUDIO
    TITLE "1Q_j_2356-2369_42"
    INDEX 01 01:18:30
  TRACK 43 AUDIO
    TITLE "1Q_j_2356-2369_43"
    INDEX 01 01:19:12
  TRACK 44 AUDIO
    TITLE "1Q_j_2356-2369_44"
    INDEX 01 01:21:01
  TRACK 45 AUDIO
    TITLE "1Q_j_2356-2369_45"
    INDEX 01 01:21:09
  TRACK 46 AUDIO
    TITLE "1Q_j_2356-2369_46"
    INDEX 01 01:22:73
  TRACK 47 AUDIO
    TITLE "1Q_j_2356-2369_47"
    INDEX 01 01:23:04
  TRACK 48 AUDIO
    TITLE "1Q_j_2356-2369_48"
    INDEX 01 01:26:57
  TRACK 49 AUDIO
    TITLE "1Q_j_2356-2369_49"
    INDEX 01 01:27:29
  TRACK 50 AUDIO
    TITLE "1Q_j_2356-2369_50"
    INDEX 01 01:28:48
  TRACK 51 AUDIO
    TITLE "1Q_j_2356-2369_51"
    INDEX 01 01:28:56
  TRACK 52 AUDIO
    TITLE "1Q_j_2356-2369_52"
    INDEX 01 01:31:68
  TRACK 53 AUDIO
    TITLE "1Q_j_2356-2369_53"
    INDEX 01 01:31:74
  TRACK 54 AUDIO
    TITLE "1Q_j_2356-2369_54"
    INDEX 01 01:39:38
  TRACK 55 AUDIO
    TITLE "1Q_j_2356-2369_55"
    INDEX 01 01:40:12
  TRACK 56 AUDIO
    TITLE "1Q_j_2356-2369_56"
    INDEX 01 01:41:21
  TRACK 57 AUDIO
    TITLE "1Q_j_2356-2369_57"
    INDEX 01 01:41:29
  TRACK 58 AUDIO
    TITLE "1Q_j_2356-2369_58"
    INDEX 01 01:45:25
  TRACK 59 AUDIO
    TITLE "1Q_j_2356-2369_59"
    INDEX 01 01:45:31
  TRACK 60 AUDIO
    TITLE "1Q_j_2356-2369_60"
    INDEX 01 01:48:51
  TRACK 61 AUDIO
    TITLE "1Q_j_2356-2369_61"
    INDEX 01 01:49:21
  TRACK 62 AUDIO
    TITLE "1Q_j_2356-2369_62"
    INDEX 01 01:50:48
  TRACK 63 AUDIO
    TITLE "1Q_j_2356-2369_63"
    INDEX 01 01:50:57
  TRACK 64 AUDIO
    TITLE "1Q_j_2356-2369_64"
    INDEX 01 01:54:12
  TRACK 65 AUDIO
    TITLE "1Q_j_2356-2369_65"
    INDEX 01 01:54:18
  TRACK 66 AUDIO
    TITLE "1Q_j_2356-2369_66"
    INDEX 01 01:59:15
  TRACK 67 AUDIO
    TITLE "1Q_j_2356-2369_67"
    INDEX 01 01:59:60
  TRACK 68 AUDIO
    TITLE "1Q_j_2356-2369_68"
    INDEX 01 02:01:16
  TRACK 69 AUDIO
    TITLE "1Q_j_2356-2369_69"
    INDEX 01 02:01:24
  TRACK 70 AUDIO
    TITLE "1Q_j_2356-2369_70"
    INDEX 01 02:05:02
  TRACK 71 AUDIO
    TITLE "1Q_j_2356-2369_71"
    INDEX 01 02:05:10
  TRACK 72 AUDIO
    TITLE "1Q_j_2356-2369_72"
    INDEX 01 02:12:04
  TRACK 73 AUDIO
    TITLE "1Q_j_2356-2369_73"
    INDEX 01 02:12:49
  TRACK 74 AUDIO
    TITLE "1Q_j_2356-2369_74"
    INDEX 01 02:14:01
  TRACK 75 AUDIO
    TITLE "1Q_j_2356-2369_75"
    INDEX 01 02:14:11
  TRACK 76 AUDIO
    TITLE "1Q_j_2356-2369_76"
    INDEX 01 02:16:08
  TRACK 77 AUDIO
    TITLE "1Q_j_2356-2369_77"
    INDEX 01 02:16:14
  TRACK 78 AUDIO
    TITLE "1Q_j_2356-2369_78"
    INDEX 01 02:22:18
  TRACK 79 AUDIO
    TITLE "1Q_j_2356-2369_79"
    INDEX 01 02:22:63
  TRACK 80 AUDIO
    TITLE "1Q_j_2356-2369_80"
    INDEX 01 02:24:07
  TRACK 81 AUDIO
    TITLE "1Q_j_2356-2369_81"
    INDEX 01 02:24:15
  TRACK 82 AUDIO
    TITLE "1Q_j_2356-2369_82"
    INDEX 01 02:28:68
  TRACK 83 AUDIO
    TITLE "1Q_j_2356-2369_83"
    INDEX 01 02:29:01
  TRACK 84 AUDIO
    TITLE "1Q_j_2356-2369_84"
    INDEX 01 02:34:59
